<svg xmlns="http://www.w3.org/2000/svg" width="1200" height="630" viewBox="0 0 1200 630">
  <rect width="1200" height="630" fill="#0a0a0a"/>

  <!-- Subtle grid -->
  <defs>
    <pattern id="grid" width="60" height="60" patternUnits="userSpaceOnUse">
      <path d="M 60 0 L 0 0 0 60" fill="none" stroke="#1a1a1a" stroke-width="1"/>
    </pattern>
  </defs>
  <rect width="1200" height="630" fill="url(#grid)"/>

  <!-- Accent glow top-right -->
  <ellipse cx="1100" cy="150" rx="380" ry="260" fill="#00c49a" opacity="0.07"/>

  <!-- Workflow icon – right side, scale 13 (~312px), centered vertically -->
  <g transform="translate(860, 90) scale(13)" stroke="#00c49a" stroke-width="1.5" stroke-linecap="round" stroke-linejoin="round" fill="none" opacity="0.55">
    <rect width="8" height="8" x="3" y="3" rx="2"/>
    <path d="M7 11v4a2 2 0 0 0 2 2h4"/>
    <rect width="8" height="8" x="13" y="13" rx="2"/>
  </g>

  <!-- Left accent bar -->
  <rect x="80" y="180" width="5" height="220" rx="2.5" fill="#00c49a"/>

  <!-- Name -->
  <text x="116" y="298" font-family="system-ui,-apple-system,Helvetica Neue,Arial,sans-serif" font-size="96" font-weight="700" fill="#ffffff" letter-spacing="-2">Julius Bruch</text>

  <!-- Role -->
  <text x="118" y="370" font-family="system-ui,-apple-system,Helvetica Neue,Arial,sans-serif" font-size="36" font-weight="400" fill="#00c49a">Power Apps &amp; Web Developer · Leipzig</text>

  <!-- Tags row -->
  <rect x="118" y="430" width="220" height="50" rx="25" fill="#00c49a22"/>
  <text x="228" y="462" text-anchor="middle" font-family="system-ui,-apple-system,Helvetica Neue,Arial,sans-serif" font-size="22" font-weight="600" fill="#00c49a">Power Apps</text>

  <rect x="354" y="430" width="260" height="50" rx="25" fill="#00c49a22"/>
  <text x="484" y="462" text-anchor="middle" font-family="system-ui,-apple-system,Helvetica Neue,Arial,sans-serif" font-size="22" font-weight="600" fill="#00c49a">Power Automate</text>

  <rect x="630" y="430" width="190" height="50" rx="25" fill="#00c49a22"/>
  <text x="725" y="462" text-anchor="middle" font-family="system-ui,-apple-system,Helvetica Neue,Arial,sans-serif" font-size="22" font-weight="600" fill="#00c49a">SharePoint</text>
</svg>
